Coordinates
version=1
nRows=16
nColumns=22
inDegrees=yes

Units are S.I. units (second, meters, Newtons, ...)
If the header above contains a line with 'inDegrees', this indicates whether rotational values are in degrees (yes) or radians (no).

endheader
time	pelvis_tilt	pelvis_list	pelvis_rotation	pelvis_tx	pelvis_ty	pelvis_tz	hip_flexion_r	hip_adduction_r	hip_rotation_r	knee_angle_r	ankle_angle_r	subtalar_angle_r	hip_flexion_l	hip_adduction_l	hip_rotation_l	knee_angle_l	ankle_angle_l	subtalar_angle_l	lumbar_extension	lumbar_bending	lumbar_rotation
      3.92000000	      3.22315994	     -1.72153193	    -82.20090247	      0.36486325	      1.06667132	      0.46592680	     -5.49521182	     -0.99876065	      6.87708518	    -30.93445940	     13.15051281	      3.81818622	     14.19247539	      1.12705487	      3.72860693	    -12.51778471	      1.17689840	      3.87471099	     -2.31496559	     -5.06980689	     -0.84937834
      3.93000000	      3.40244090	     -1.72550275	    -82.56120061	      0.36832539	      1.06760136	      0.47218229	     -4.87703409	     -1.31775729	      7.16081267	    -32.55626322	     11.94303265	      4.70344509	     13.73533450	      1.38573460	      3.30150350	    -12.47290890	      1.40850466	      3.67513923	     -2.31512153	     -5.30014922	     -0.81327881
      3.94000000	      3.59125515	     -1.74454390	    -82.92653169	      0.37171737	      1.06848526	      0.47835783	     -4.23389949	     -1.63424942	      7.43979490	    -34.20735071	     10.64692823	      5.52359019	     13.22478965	      1.65952691	      2.85573356	    -12.34829251	      1.64502235	      3.38679251	     -2.33356678	     -5.53720957	     -0.78316378
      3.95000000	      3.78692203	     -1.77822192	    -83.28211228	      0.37507862	      1.06931087	      0.48444068	     -3.57500866	     -1.95011705	      7.69241387	    -35.87035035	      9.26673460	      6.27860295	     12.67463359	      1.94959032	      2.40484334	    -12.16121903	      1.86788200	      3.04246227	     -2.36888150	     -5.77320466	     -0.77440273
      3.96000000	      3.98943289	     -1.82791156	    -83.61106316	      0.37840897	      1.07007410	      0.49043107	     -2.91689751	     -2.26103787	      7.92195832	    -37.52485180	      7.81521348	      6.95692659	     12.10279775	      2.25731791	      1.98342746	    -11.94811200	      2.07906939	      2.67715160	     -2.42233907	     -6.01218465	     -0.80573991
      3.97000000	      4.18708286	     -1.89451695	    -83.88978994	      0.38175606	      1.07077544	      0.49631445	     -2.27085473	     -2.55691921	      8.11393101	    -39.15720469	      6.29588095	      7.60195254	     11.52740214	      2.57367747	      1.62242172	    -11.73867037	      2.28252456	      2.28972024	     -2.49879489	     -6.23191888	     -0.92559968
      3.98000000	      4.39232699	     -1.97410828	    -84.14283651	      0.38506854	      1.07141153	      0.50211420	     -1.63364210	     -2.85308250	      8.29122161	    -40.77159234	      4.78379046	      8.11786680	     10.94599823	      2.90381861	      1.31341463	    -11.52918642	      2.50273629	      1.95045837	     -2.58544669	     -6.45612770	     -1.06307956
      3.99000000	      4.61090110	     -2.05970490	    -84.37068218	      0.38834918	      1.07198743	      0.50782637	     -1.00471489	     -3.15341345	      8.47555716	    -42.36248939	      3.30495435	      8.48747860	     10.37037286	      3.25301943	      1.05779146	    -11.32917890	      2.74097707	      1.68651477	     -2.67627778	     -6.68889869	     -1.22885824
      4.00000000	      4.81077414	     -2.16244085	    -84.54637175	      0.39161430	      1.07253578	      0.51339335	     -0.39781656	     -3.42215646	      8.63988398	    -43.91870265	      1.85106786	      8.75107591	      9.82582722	      3.58831218	      0.86267553	    -11.19467721	      2.95363520	      1.48177200	     -2.79114209	     -6.89211743	     -1.45766164
      4.01000000	      5.00977602	     -2.26289261	    -84.70880970	      0.39482232	      1.07303079	      0.51885949	      0.21296636	     -3.68098758	      8.82410820	    -45.45419565	      0.48850136	      8.98794216	      9.30283648	      3.92564056	      0.71200709	    -11.08280322	      3.20918394	      1.25684045	     -2.89765680	     -7.08902160	     -1.68883193
      4.02000000	      5.19235988	     -2.36625959	    -84.85119928	      0.39796425	      1.07349998	      0.52418668	      0.82253665	     -3.90934789	      9.02178084	    -46.96324417	     -0.79792414	      9.15379682	      8.80524546	      4.24734311	      0.59984834	    -11.00267099	      3.47797048	      1.04911160	     -3.00977877	     -7.26196527	     -1.92962732
      4.03000000	      5.35671932	     -2.47722877	    -84.98265332	      0.40101941	      1.07396435	      0.52937453	      1.42663565	     -4.10392317	      9.23207121	    -48.43908246	     -2.01715471	      9.26880005	      8.32910959	      4.54988152	      0.51128675	    -10.95922787	      3.74642574	      0.86359174	     -3.13079615	     -7.40845920	     -2.16688708
      4.04000000	      5.50531146	     -2.57184359	    -85.11563732	      0.40397858	      1.07438651	      0.53442236	      2.05703251	     -4.27069377	      9.46002223	    -49.89283750	     -3.14337696	      9.41042977	      7.88458694	      4.83705966	      0.42179881	    -10.92015190	      4.02445931	      0.63037276	     -3.23440600	     -7.53440078	     -2.38218209
      4.05000000	      5.63070081	     -2.67097831	    -85.24646663	      0.40682823	      1.07480918	      0.53929246	      2.68979018	     -4.40309025	      9.68388526	    -51.30635525	     -4.20392559	      9.60994879	      7.46494082	      5.09881332	      0.33498631	    -10.91216029	      4.28132982	      0.40518084	     -3.35120598	     -7.63187998	     -2.58591643
      4.06000000	      5.73785066	     -2.77878292	    -85.37464160	      0.40956827	      1.07524202	      0.54397767	      3.31987654	     -4.51142622	      9.88955327	    -52.67295396	     -5.19802267	      9.86430081	      7.06126655	      5.33894486	      0.23235532	    -10.92368161	      4.49443215	      0.21536527	     -3.49066638	     -7.70575534	     -2.77002864
      4.07000000	      5.82827673	     -2.84172315	    -85.51127389	      0.41220568	      1.07558435	      0.54851114	      4.00584310	     -4.60789096	     10.08411432	    -53.99342073	     -6.03761779	     10.34633853	      6.71404087	      5.56530235	      0.13735125	    -10.93072660	      4.75691912	     -0.06519902	     -3.58204050	     -7.76337766	     -2.93212786
